<svg width="1587" height="962" viewBox="0 0 1587 962" fill="none" xmlns="http://www.w3.org/2000/svg">
<path d="M1139.4 43.6606C1137.7 33.2913 1144.79 24.0345 1155.25 22.9851L1260.29 12.4426L1365.33 1.90012C1375.79 0.850708 1385.65 8.40598 1387.35 18.7753V18.7753C1389.06 29.1446 1381.96 38.4013 1371.51 39.4507L1161.42 60.5358C1150.97 61.5852 1141.11 54.0299 1139.4 43.6606V43.6606Z" fill="#FAA7A6" fill-opacity="0.31"/>
<path d="M172.735 156.143C171.568 149.046 176.424 142.711 183.58 141.992L294.597 130.85L405.613 119.708C412.769 118.99 419.517 124.161 420.683 131.258V131.258C421.85 138.355 416.995 144.69 409.839 145.408L187.805 167.693C180.649 168.411 173.902 163.24 172.735 156.143V156.143Z" fill="#E4DEF6"/>
<path d="M1417.44 716.637C1416.28 709.54 1421.13 703.204 1428.29 702.486L1498.96 695.393L1569.63 688.3C1576.78 687.582 1583.53 692.753 1584.7 699.85V699.85C1585.86 706.947 1581.01 713.283 1573.85 714.001L1432.51 728.186C1425.36 728.905 1418.61 723.734 1417.44 716.637V716.637Z" fill="#E69B42" fill-opacity="0.73"/>
<path d="M2.11266 948.492C0.94587 941.395 5.80131 935.06 12.9576 934.342L82.9087 927.321L152.86 920.3C160.016 919.582 166.763 924.753 167.93 931.85V931.85C169.097 938.947 164.241 945.282 157.085 946.001L17.1829 960.042C10.0266 960.76 3.27945 955.589 2.11266 948.492V948.492Z" fill="#E69B42" fill-opacity="0.73"/>
<path d="M1111.28 429.869C1108.14 425.455 1109.63 420.127 1114.6 417.97L1214.86 374.438L1315.11 330.906C1320.08 328.749 1326.66 330.579 1329.8 334.993V334.993C1332.94 339.407 1331.45 344.735 1326.48 346.892L1125.97 433.955C1121 436.113 1114.42 434.283 1111.28 429.869V429.869Z" fill="#E4DEF6"/>
<path d="M1287.12 133.607C1284.41 127.713 1287.28 121.518 1293.53 119.77L1294.61 119.468L1295.68 119.166C1301.93 117.417 1309.18 120.778 1311.88 126.671V126.671C1314.59 132.565 1311.72 138.76 1305.47 140.508L1303.32 141.112C1297.07 142.86 1289.82 139.5 1287.12 133.607V133.607Z" fill="#A487E7"/>
<path d="M210.78 615.148C207.346 607.662 210.992 599.793 218.923 597.572L221.691 596.797L224.459 596.021C232.39 593.801 241.604 598.069 245.038 605.555V605.555C248.472 613.042 244.826 620.911 236.895 623.132L231.359 624.682C223.428 626.903 214.214 622.635 210.78 615.148V615.148Z" fill="#A487E7"/>
</svg>
