<svg width="1153" height="521" viewBox="0 0 1153 521" fill="none" xmlns="http://www.w3.org/2000/svg">
<g opacity="0.3">
<path opacity="0.3" fill-rule="evenodd" clip-rule="evenodd" d="M209.446 520.333V511H259.183V441.666H282.543V326.333H293.094V318.333H320.223V325.667H330.019V393H349.613V382.333H398.595V367.667H405.377V265H415.174V253H422.709V237.667H429.492V252.333H436.274V265.667H447.578V377H479.228V354.333H513.893V379.667H533.486V325.667H552.326V354.333H559.108V393.667H584.731V291L627.685 248.333H635.974V369H650.292V355H696.26V369H709.825V245.667H724.897V235H755.794V246.333H770.865V361H797.994V372.333H824.37V319L831.152 314.333H866.57L873.352 320.333V383.666H892.192V420.333H910.278V520.333H209.446Z" fill="#EDF5FF"/>
<path opacity="0.3" fill-rule="evenodd" clip-rule="evenodd" d="M485.163 474.5H485.445V474H485.163V474.5Z" fill="#ACB1CE"/>
<path opacity="0.3" fill-rule="evenodd" clip-rule="evenodd" d="M945.695 493V471H933.638V421.666H917.058V451H899.726V441H883.147V406.333H850.744V391.667H803.268V404.334H781.415V387H761.068V346.334H752.779L724.896 363V379.667H707.564V396.334H689.478V347.667H680.435V339.667H673.653V347H664.61V421.666H638.988V389.667H610.352V407H573.426V376.333H565.891V369.667H545.544V375.667H539.515V404.334H529.869V381.209C529.896 378.614 529.9 375.882 529.869 373.054V371.417H529.849C529.391 341.303 524.992 301.693 504.848 303.667C488.622 305.257 485.267 342.934 485.064 371.417H485.021V403H473.2V368.334H425.724V402.334H397.087V418.334H388.044V349H379.755V330.334H376.741V349H366.945V419H340.569V402.334H320.222V394.333H293.093V403H264.457V446.333H247.878V512.333H178.549V519.667L970.564 521V493H945.695Z" fill="#E2E6EC"/>
<path opacity="0.3" fill-rule="evenodd" clip-rule="evenodd" d="M181.375 517V513H228.85V473H253.153V431H274.065V473H288.76V458H296.108V450H344.149V458H351.496V473H379.755V442.5H394.45V473H408.58V431H414.797V425H463.403V431H469.62V447.5H486.011V464.5H517.096V474.5H564.572V432.5H583.788V424H593.396V432.5H612.612V453.5H628.438V466.5H690.608V426.5H758.996V443H805.907V457H828.514V427.5H837.557V422.5H857.904V427.5H865.816V457H888.989V475H912.162V467H925.726V486H953.42V511H973.767V520.5H181.375V517Z" fill="#D4E1F0"/>
<path fill-rule="evenodd" clip-rule="evenodd" d="M971.32 520.334H168V507H197.39V496.334H219.243V464.334H237.329V496.334H257.675V481H261.737V477.31H287.566V481H291.021V496H298.934V473.5H311.933V497H315.889V489.5H327.758V476.5H345.279V494.5H363.93V458H373.538V453H423.275V459.5H430.622V496.5H440.796V487.5H450.404V496.5H460.577V483H483.185V501H505.227V439H512.009V435.5H522.748V439.5H528.965V489H551.572V461H574.18V478.5H625.612V497H648.219V452H674.218V487.5H692.304V498H710.39V489H719.433V465H730.171V458.5H777.082V465H787.255V492H796.298V500H807.602V481H859.034V491.5H903.684V505H928.552V497.5H943.247V505H961.898V514H982.245V520.334H971.32Z" fill="#EDF5FF"/>
</g>
<path d="M0 66H109.5C114.194 66 118 69.8056 118 74.5V74.5C118 79.1944 114.194 83 109.5 83H0V66Z" fill="#FBF9FF"/>
<path d="M0 98H92C96.9706 98 101 102.029 101 107V107C101 111.971 96.9706 116 92 116H0V98Z" fill="#FBF9FF"/>
<path d="M962.387 83.7181C958.859 73.8766 963.978 63.0391 973.82 59.5118L1047.93 32.9492L1122.05 6.38652C1131.89 2.85929 1142.73 7.97803 1146.25 17.8195V17.8195C1149.78 27.6611 1144.66 38.4986 1134.82 42.0258L986.593 95.1511C976.751 98.6784 965.914 93.5596 962.387 83.7181V83.7181Z" fill="white"/>
<path d="M952.634 124.871C950.627 119.271 953.54 113.104 959.14 111.097L965.366 108.865L971.591 106.634C977.192 104.627 983.359 107.54 985.366 113.14V113.14C987.373 118.74 984.46 124.907 978.86 126.915L966.409 131.377C960.808 133.384 954.641 130.471 952.634 124.871V124.871Z" fill="white"/>
<path d="M913.693 116.905C912.758 114.295 914.115 111.422 916.724 110.487L924.807 107.59L932.889 104.693C935.498 103.758 938.372 105.115 939.307 107.725V107.725C940.242 110.334 938.885 113.207 936.276 114.142L920.111 119.936C917.502 120.871 914.628 119.514 913.693 116.905V116.905Z" fill="white"/>
<path d="M917.942 79.1494C916.869 76.1569 918.426 72.8615 921.418 71.789L926.558 69.9469L931.698 68.1049C934.69 67.0324 937.985 68.5889 939.058 71.5814V71.5814C940.131 74.5739 938.574 77.8693 935.582 78.9419L925.302 82.6259C922.31 83.6985 919.015 82.142 917.942 79.1494V79.1494Z" fill="white"/>
<path d="M1044.77 8.02627C1044.35 6.83627 1044.96 5.52584 1046.15 5.09934L1051.23 3.28113L1056.3 1.46293C1057.49 1.03643 1058.8 1.65537 1059.23 2.84537V2.84537C1059.65 4.03538 1059.04 5.34581 1057.85 5.77231L1047.7 9.40872C1046.51 9.83522 1045.2 9.21628 1044.77 8.02627V8.02627Z" fill="white"/>
<path d="M961.219 41.4003C960.546 39.5224 961.522 37.4544 963.4 36.7813L989.847 27.3026L1016.29 17.8239C1018.17 17.1509 1020.24 18.1276 1020.91 20.0055V20.0055C1021.59 21.8835 1020.61 23.9514 1018.73 24.6245L965.838 43.5819C963.96 44.2549 961.892 43.2782 961.219 41.4003V41.4003Z" fill="white"/>
</svg>
