<svg width="1296" height="455" viewBox="0 0 1296 455" fill="none" xmlns="http://www.w3.org/2000/svg">
<path d="M1164.65 29.4923C1163.74 22.3953 1168.75 15.9031 1175.85 14.9914L1227.78 8.32099L1279.71 1.65055C1286.8 0.738914 1293.3 5.7531 1294.21 12.8501V12.8501C1295.12 19.947 1290.1 26.4393 1283.01 27.3509L1179.15 40.6918C1172.05 41.6034 1165.56 36.5892 1164.65 29.4923V29.4923Z" fill="#E69B42" fill-opacity="0.91"/>
<path d="M50.3866 402.718C46.8594 392.877 51.9781 382.039 61.8196 378.512L135.933 351.949L210.047 325.387C219.889 321.859 230.726 326.978 234.254 336.82V336.82C237.781 346.661 232.662 357.499 222.821 361.026L74.5929 414.151C64.7514 417.678 53.9138 412.56 50.3866 402.718V402.718Z" fill="#6C5BF0" fill-opacity="0.74"/>
<path d="M40.6343 443.871C38.6271 438.271 41.5399 432.104 47.1402 430.097L53.3657 427.865L59.5913 425.634C65.1915 423.627 71.3586 426.54 73.3657 432.14V432.14C75.3729 437.74 72.4601 443.907 66.8598 445.915L54.4087 450.377C48.8085 452.384 42.6414 449.471 40.6343 443.871V443.871Z" fill="#6C5BF0" fill-opacity="0.74"/>
<path d="M1.69325 435.905C0.758096 433.295 2.1152 430.422 4.72444 429.487L12.8067 426.59L20.889 423.693C23.4983 422.758 26.3716 424.115 27.3067 426.725V426.725C28.2419 429.334 26.8848 432.207 24.2756 433.142L8.11095 438.936C5.50172 439.871 2.62841 438.514 1.69325 435.905V435.905Z" fill="#6C5BF0" fill-opacity="0.74"/>
<path d="M5.942 398.149C4.86946 395.157 6.42594 391.861 9.41848 390.789L14.558 388.947L19.6975 387.105C22.6901 386.032 25.9855 387.589 27.058 390.581V390.581C28.1305 393.574 26.5741 396.869 23.5815 397.942L13.3025 401.626C10.3099 402.698 7.01454 401.142 5.942 398.149V398.149Z" fill="#6C5BF0" fill-opacity="0.74"/>
<path d="M85.3088 424.22C84.586 422.203 85.6349 419.982 87.6517 419.26L92.1912 417.633L96.7307 416.006C98.7475 415.283 100.968 416.332 101.691 418.349V418.349C102.414 420.365 101.365 422.586 99.3483 423.309L90.2693 426.563C88.2525 427.286 86.0316 426.237 85.3088 424.22V424.22Z" fill="#6C5BF0" fill-opacity="0.74"/>
<path d="M132.772 327.026C132.346 325.836 132.965 324.526 134.155 324.099L139.228 322.281L144.301 320.463C145.491 320.036 146.801 320.655 147.228 321.845V321.845C147.654 323.035 147.035 324.346 145.845 324.772L135.699 328.409C134.509 328.835 133.199 328.216 132.772 327.026V327.026Z" fill="#6C5BF0" fill-opacity="0.74"/>
<path d="M49.2187 360.4C48.5456 358.522 49.5223 356.454 51.4003 355.781L77.8473 346.303L104.294 336.824C106.172 336.151 108.24 337.128 108.913 339.006V339.006C109.586 340.883 108.61 342.951 106.732 343.624L53.8376 362.582C51.9597 363.255 49.8917 362.278 49.2187 360.4V360.4Z" fill="#6C5BF0" fill-opacity="0.74"/>
</svg>
