<?xml version="1.0" encoding="UTF-8"?>
<svg width="721px" height="287px" viewBox="0 0 721 287" version="1.1" xmlns="http://www.w3.org/2000/svg" xmlns:xlink="http://www.w3.org/1999/xlink">
    <!-- Generator: Sketch 52.2 (67145) - http://www.bohemiancoding.com/sketch -->
    <title>Group</title>
    <desc>Created with Sketch.</desc>
    <g id="Page-1" stroke="none" stroke-width="1" fill="none" fill-rule="evenodd">
        <g id="57606-O92YWS-815" transform="translate(-41.000000, -252.000000)">
            <g id="Group" transform="translate(41.000000, 252.000000)">
                <polyline id="Fill-32" fill="#EDF5FF" opacity="0.3" points="37.334 286.323 37.334 276.99 81.334 276.99 81.334 207.656 102 207.656 102 92.323 111.334 92.323 111.334 84.323 135.334 84.323 135.334 91.657 144 91.657 144 158.99 161.334 158.99 161.334 148.323 204.667 148.323 204.667 133.657 210.667 133.657 210.667 30.99 219.334 30.99 219.334 18.99 226 18.99 226 3.657 232 3.657 232 18.323 238 18.323 238 31.657 248 31.657 248 142.99 276 142.99 276 120.323 306.667 120.323 306.667 145.657 324 145.657 324 91.657 340.667 91.657 340.667 120.323 346.667 120.323 346.667 159.657 369.334 159.657 369.334 56.99 407.334 14.323 414.667 14.323 414.667 134.99 427.334 134.99 427.334 120.99 468 120.99 468 134.99 480 134.99 480 11.657 493.334 11.657 493.334 0.99 520.667 0.99 520.667 12.323 534 12.323 534 126.99 558 126.99 558 138.323 581.334 138.323 581.334 84.99 587.334 80.323 618.667 80.323 624.667 86.323 624.667 149.656 641.334 149.656 641.334 186.323 657.334 186.323 657.334 286.323 37.334 286.323"></polyline>
                <polygon id="Fill-33" fill="#ACB1CE" opacity="0.3" points="281.25 240.49 281.5 240.49 281.5 239.99 281.25 239.99"></polygon>
                <path d="M688.666,258.99 L688.666,236.99 L677.999,236.99 L677.999,187.656 L663.332,187.656 L663.332,216.99 L647.999,216.99 L647.999,206.99 L633.332,206.99 L633.332,172.323 L604.666,172.323 L604.666,157.657 L562.666,157.657 L562.666,170.324 L543.333,170.324 L543.333,152.99 L525.333,152.99 L525.333,112.324 L518,112.324 L493.333,128.99 L493.333,145.657 L478,145.657 L478,162.324 L462,162.324 L462,113.657 L454,113.657 L454,105.657 L448,105.657 L448,112.99 L440,112.99 L440,187.656 L417.333,187.656 L417.333,155.657 L392,155.657 L392,172.99 L359.333,172.99 L359.333,142.323 L352.667,142.323 L352.667,135.657 L334.667,135.657 L334.667,141.657 L329.333,141.657 L329.333,170.324 L320.8,170.324 L320.8,147.199 C320.824,144.604 320.827,141.872 320.8,139.044 L320.8,137.407 L320.782,137.407 C320.377,107.293 316.485,67.683 298.665,69.657 C284.31,71.247 281.342,108.924 281.163,137.407 L281.125,137.407 L281.125,168.99 L270.667,168.99 L270.667,134.324 L228.667,134.324 L228.667,168.324 L203.333,168.324 L203.333,184.324 L195.333,184.324 L195.333,114.99 L188,114.99 L188,96.324 L185.333,96.324 L185.333,114.99 L176.667,114.99 L176.667,184.99 L153.333,184.99 L153.333,168.324 L135.333,168.324 L135.333,160.323 L111.333,160.323 L111.333,168.99 L86,168.99 L86,212.323 L71.333,212.323 L71.333,278.323 L10,278.323 L10,285.657 L710.666,286.99 L710.666,258.99 L688.666,258.99" id="Fill-34" fill="#E2E6EC" opacity="0.3"></path>
                <polyline id="Fill-35" fill="#D4E1F0" opacity="0.3" points="12.5 282.99 12.5 278.99 54.5 278.99 54.5 238.99 76 238.99 76 196.99 94.5 196.99 94.5 238.99 107.5 238.99 107.5 223.99 114 223.99 114 215.99 156.5 215.99 156.5 223.99 163 223.99 163 238.99 188 238.99 188 208.49 201 208.49 201 238.99 213.5 238.99 213.5 196.99 219 196.99 219 190.99 262 190.99 262 196.99 267.5 196.99 267.5 213.49 282 213.49 282 230.49 309.5 230.49 309.5 240.49 351.5 240.49 351.5 198.49 368.5 198.49 368.5 189.99 377 189.99 377 198.49 394 198.49 394 219.49 408 219.49 408 232.49 463 232.49 463 192.49 523.5 192.49 523.5 208.99 565 208.99 565 222.99 585 222.99 585 193.49 593 193.49 593 188.49 611 188.49 611 193.49 618 193.49 618 222.99 638.5 222.99 638.5 240.99 659 240.99 659 232.99 671 232.99 671 251.99 695.5 251.99 695.5 276.99 713.5 276.99 713.5 286.49 12.5 286.49 12.5 282.99"></polyline>
                <polyline id="Fill-36" fill="#EDF5FF" points="711.335 286.324 0.668 286.324 0.668 272.99 26.668 272.99 26.668 262.324 46.001 262.324 46.001 230.324 62.001 230.324 62.001 262.324 80 262.324 80 246.99 83.594 246.99 83.594 243.3 106.444 243.3 106.444 246.99 109.5 246.99 109.5 261.99 116.5 261.99 116.5 239.49 128 239.49 128 262.99 131.5 262.99 131.5 255.49 142 255.49 142 242.49 157.5 242.49 157.5 260.49 174 260.49 174 223.99 182.5 223.99 182.5 218.99 226.5 218.99 226.5 225.49 233 225.49 233 262.49 242 262.49 242 253.49 250.5 253.49 250.5 262.49 259.5 262.49 259.5 248.99 279.5 248.99 279.5 266.99 299 266.99 299 204.99 305 204.99 305 201.49 314.5 201.49 314.5 205.49 320 205.49 320 254.99 340 254.99 340 226.99 360 226.99 360 244.49 405.5 244.49 405.5 262.99 425.5 262.99 425.5 217.99 448.5 217.99 448.5 253.49 464.5 253.49 464.5 263.99 480.5 263.99 480.5 254.99 488.5 254.99 488.5 230.99 498 230.99 498 224.49 539.5 224.49 539.5 230.99 548.5 230.99 548.5 257.99 556.5 257.99 556.5 265.99 566.5 265.99 566.5 246.99 612 246.99 612 257.49 651.5 257.49 651.5 270.99 673.5 270.99 673.5 263.49 686.5 263.49 686.5 270.99 703 270.99 703 279.99 721 279.99 721 286.324 711.335 286.324"></polyline>
            </g>
        </g>
    </g>
</svg>