<svg width="1578" height="1227" viewBox="0 0 1578 1227" fill="none" xmlns="http://www.w3.org/2000/svg">
<path d="M0.826172 836.778L1577.49 674.44V801.134L0.826172 1047V836.778Z" fill="#A487E7" fill-opacity="0.78"/>
<path d="M0.826172 0H1576.17V680.253L0.826172 868.507V680.253V0Z" fill="url(#paint0_linear)"/>
<path d="M0.826172 41.9279H128.825C136.765 41.9279 143.201 48.364 143.201 56.3032V56.3032C143.201 64.2425 136.765 70.6785 128.825 70.6785H0.826172V41.9279Z" fill="#6D52D1" fill-opacity="0.59"/>
<path d="M0.826172 82.6579H79.45C87.72 82.6579 94.4242 89.3621 94.4242 97.6321V97.6321C94.4242 105.902 87.72 112.606 79.45 112.606H0.826172V82.6579Z" fill="#6D52D1" fill-opacity="0.59"/>
<path d="M-96.6726 387.814C-99.6148 368.161 -85.9881 350.465 -66.2363 348.288L121.399 327.608C141.15 325.432 159.547 339.598 162.49 359.25V359.25C165.432 378.903 151.805 396.599 132.054 398.776L-55.5815 419.456C-75.3332 421.632 -93.7303 407.466 -96.6726 387.814V387.814Z" fill="#FFA800" fill-opacity="0.72"/>
<path d="M1357.03 233.389C1354.12 214.179 1367.43 196.897 1386.74 194.788L1578.71 173.826C1598.02 171.717 1616.03 185.58 1618.93 204.79V204.79C1621.83 224 1608.53 241.282 1589.22 243.391L1397.25 264.353C1377.94 266.461 1359.93 252.598 1357.03 233.389V233.389Z" fill="#FFA800" fill-opacity="0.82"/>
<path d="M1358.19 571.74C1352.55 560.635 1357.46 548.156 1369.15 543.867L1492.19 498.734L1615.22 453.601C1626.91 449.312 1640.96 454.837 1646.6 465.942V465.942C1652.23 477.047 1647.33 489.526 1635.63 493.815L1389.57 584.081C1377.88 588.37 1363.83 582.845 1358.19 571.74V571.74Z" fill="#311569" fill-opacity="0.69"/>
<path d="M1420.07 987.659C1415.27 976.274 1420.96 964.125 1432.78 960.524L1536.5 928.925L1640.21 897.327C1652.03 893.726 1665.51 900.036 1670.31 911.422V911.422C1675.11 922.807 1669.42 934.956 1657.6 938.558L1450.17 1001.75C1438.35 1005.36 1424.87 999.045 1420.07 987.659V987.659Z" fill="#FAA7A6" fill-opacity="0.72"/>
<path d="M1406.8 1035.27C1404.07 1028.79 1407.31 1021.88 1414.03 1019.83L1424.13 1016.75L1434.22 1013.68C1440.95 1011.63 1448.62 1015.22 1451.35 1021.7V1021.7C1454.08 1028.18 1450.84 1035.09 1444.11 1037.14L1423.93 1043.29C1417.2 1045.34 1409.53 1041.75 1406.8 1035.27V1035.27Z" fill="#FAA7A6" fill-opacity="0.6"/>
<path d="M167.276 224.609C163.625 215.948 167.953 206.706 176.944 203.967L178.878 203.378L180.812 202.788C189.803 200.049 200.052 204.849 203.704 213.51V213.51C207.355 222.171 203.027 231.413 194.036 234.152L190.168 235.331C181.177 238.07 170.928 233.269 167.276 224.609V224.609Z" fill="#A487E7"/>
<path d="M768.991 240.545C766.747 235.222 769.407 229.543 774.933 227.859L775.568 227.666L776.203 227.473C781.728 225.789 788.027 228.739 790.271 234.062V234.062C792.515 239.384 789.855 245.064 784.329 246.747L783.059 247.134C777.534 248.817 771.236 245.867 768.991 240.545V240.545Z" fill="#A487E7"/>
<path d="M789.17 206.692C787.808 203.46 789.422 200.012 792.777 198.99L793.763 198.69L794.749 198.39C798.104 197.368 801.927 199.158 803.29 202.39V202.39C804.652 205.621 803.037 209.069 799.683 210.091L797.711 210.692C794.356 211.714 790.532 209.923 789.17 206.692V206.692Z" fill="#A487E7"/>
<path d="M743.362 224.122C742.256 221.499 743.616 218.685 746.339 217.856V217.856V217.856C749.062 217.026 752.215 218.465 753.321 221.088V221.088C754.427 223.711 753.067 226.525 750.344 227.354V227.354C747.621 228.184 744.468 226.745 743.362 224.122V224.122Z" fill="#A487E7"/>
<path d="M1216.57 570.519C1212.92 561.858 1217.25 552.617 1226.24 549.877L1228.17 549.288L1230.11 548.699C1239.1 545.96 1249.35 550.76 1253 559.421V559.421C1256.65 568.082 1252.32 577.324 1243.33 580.063L1239.46 581.241C1230.47 583.98 1220.22 579.18 1216.57 570.519V570.519Z" fill="#A487E7"/>
<path d="M1449.3 303.277C1445.64 294.616 1449.97 285.375 1458.96 282.635L1460.9 282.046L1462.83 281.457C1471.82 278.718 1482.07 283.518 1485.72 292.179V292.179C1489.37 300.84 1485.05 310.082 1476.05 312.821L1472.19 313.999C1463.2 316.739 1452.95 311.938 1449.3 303.277V303.277Z" fill="#A487E7"/>
<path d="M1353.8 1026.05C1352.53 1023.03 1354.04 1019.81 1357.17 1018.86L1368.93 1015.28L1380.68 1011.69C1383.82 1010.74 1387.39 1012.41 1388.66 1015.43V1015.43C1389.94 1018.45 1388.43 1021.67 1385.29 1022.63L1361.78 1029.79C1358.65 1030.74 1355.08 1029.07 1353.8 1026.05V1026.05Z" fill="#FAA7A6" fill-opacity="0.6"/>
<path d="M1359.59 982.374C1358.13 978.912 1359.86 975.218 1363.45 974.123L1371.31 971.728L1379.17 969.333C1382.77 968.238 1386.86 970.156 1388.32 973.619V973.619C1389.78 977.081 1388.05 980.775 1384.46 981.87L1368.74 986.66C1365.14 987.755 1361.05 985.836 1359.59 982.374V982.374Z" fill="#FAA7A6" fill-opacity="0.6"/>
<path d="M1467.6 1012.53C1466.62 1010.2 1467.78 1007.71 1470.21 1006.97L1476.97 1004.91L1483.73 1002.85C1486.15 1002.12 1488.91 1003.41 1489.9 1005.74V1005.74C1490.88 1008.07 1489.71 1010.56 1487.29 1011.3L1473.77 1015.42C1471.35 1016.16 1468.58 1014.87 1467.6 1012.53V1012.53Z" fill="#FAA7A6" fill-opacity="0.6"/>
<path d="M1532.2 900.092C1531.62 898.715 1532.3 897.246 1533.73 896.811L1540.98 894.602L1548.23 892.394C1549.66 891.958 1551.29 892.721 1551.87 894.098V894.098C1552.45 895.475 1551.76 896.944 1550.33 897.379L1535.84 901.796C1534.41 902.232 1532.78 901.469 1532.2 900.092V900.092Z" fill="#FAA7A6" fill-opacity="0.6"/>
<path d="M1418.48 938.702C1417.57 936.53 1418.65 934.211 1420.91 933.524L1457.45 922.393L1493.98 911.261C1496.24 910.574 1498.81 911.778 1499.73 913.951V913.951C1500.64 916.123 1499.56 918.441 1497.3 919.129L1424.23 941.392C1421.97 942.079 1419.4 940.875 1418.48 938.702V938.702Z" fill="#FAA7A6" fill-opacity="0.6"/>
<defs>
<linearGradient id="paint0_linear" x1="1039.12" y1="248.05" x2="265.599" y2="778.724" gradientUnits="userSpaceOnUse">
<stop stop-color="#6F53D2"/>
<stop offset="1" stop-color="#AB7EEF"/>
</linearGradient>
</defs>
</svg>
